<svg width="14" height="14" viewBox="0 0 14 14" fill="none" xmlns="http://www.w3.org/2000/svg">
<path fill-rule="evenodd" clip-rule="evenodd" d="M13.0669 0.933058C13.311 1.17714 13.311 1.57286 13.0669 1.81694L1.81694 13.0669C1.57286 13.311 1.17714 13.311 0.933058 13.0669C0.688981 12.8229 0.688981 12.4271 0.933058 12.1831L12.1831 0.933058C12.4271 0.688981 12.8229 0.688981 13.0669 0.933058Z" fill="#616C76"/>
<path fill-rule="evenodd" clip-rule="evenodd" d="M0.933058 0.933058C1.17714 0.688981 1.57286 0.688981 1.81694 0.933058L13.0669 12.1831C13.311 12.4271 13.311 12.8229 13.0669 13.0669C12.8229 13.311 12.4271 13.311 12.1831 13.0669L0.933058 1.81694C0.688981 1.57286 0.688981 1.17714 0.933058 0.933058Z" fill="#616C76"/>
</svg>
