<svg width="14" height="18" viewBox="0 0 14 18" fill="none" xmlns="http://www.w3.org/2000/svg">
<path fill-rule="evenodd" clip-rule="evenodd" d="M7 1.5C5.61929 1.5 4.5 2.61929 4.5 4V9C4.5 10.3807 5.61929 11.5 7 11.5C8.38071 11.5 9.5 10.3807 9.5 9V4C9.5 2.61929 8.38071 1.5 7 1.5ZM3.25 4C3.25 1.92893 4.92893 0.25 7 0.25C9.07107 0.25 10.75 1.92893 10.75 4V9C10.75 11.0711 9.07107 12.75 7 12.75C4.92893 12.75 3.25 11.0711 3.25 9V4Z" fill="#0E1114"/>
<path fill-rule="evenodd" clip-rule="evenodd" d="M7 14C7.34518 14 7.625 14.2798 7.625 14.625V17.125C7.625 17.4702 7.34518 17.75 7 17.75C6.65482 17.75 6.375 17.4702 6.375 17.125V14.625C6.375 14.2798 6.65482 14 7 14Z" fill="#0E1114"/>
<path fill-rule="evenodd" clip-rule="evenodd" d="M1.33271 9.00432C1.67549 8.96374 1.98627 9.20872 2.02685 9.55151C2.17101 10.7692 2.75693 11.8917 3.67354 12.7062C4.59015 13.5207 5.77374 13.9706 6.99994 13.9706C8.22614 13.9706 9.40973 13.5207 10.3263 12.7062C11.2429 11.8917 11.8289 10.7692 11.973 9.55151C12.0136 9.20872 12.3244 8.96374 12.6672 9.00432C13.01 9.0449 13.2549 9.35568 13.2144 9.69846C13.0342 11.2201 12.302 12.6228 11.1566 13.6406C10.0112 14.6584 8.53221 15.2206 6.99994 15.2206C5.46766 15.2206 3.98864 14.6584 2.84324 13.6406C1.69783 12.6228 0.965665 11.2201 0.785523 9.69846C0.744942 9.35568 0.989926 9.0449 1.33271 9.00432Z" fill="#0E1114"/>
</svg>
